<svg width="31" height="23" viewBox="0 0 31 23" fill="none" xmlns="http://www.w3.org/2000/svg">
<path fill-rule="evenodd" clip-rule="evenodd" d="M25.9766 1.16337L15.4999 0.927124L5.02326 1.16337C4.08156 1.18471 3.17599 1.52992 2.45907 2.14087C1.74214 2.75181 1.25765 3.59116 1.08721 4.51754C0.238832 9.1334 0.238832 13.8652 1.08721 18.4811C1.25771 19.4077 1.7424 20.2472 2.45963 20.8582C3.17686 21.4692 4.08277 21.8142 5.02471 21.8353L15.4999 22.073L25.9766 21.8367C26.9183 21.8154 27.8239 21.4702 28.5408 20.8592C29.2577 20.2483 29.7422 19.4089 29.9126 18.4825C30.7599 13.8655 30.7599 9.13462 29.9126 4.519C29.7421 3.59237 29.2574 2.75284 28.5402 2.14187C27.823 1.5309 26.9171 1.18584 25.9751 1.16483M5.07284 3.35087L15.4999 3.11462L25.927 3.35087C26.8312 3.37129 27.5968 4.02317 27.7601 4.91421C27.9847 6.13046 28.1451 7.35546 28.2443 8.58337H2.75409C2.85298 7.35288 3.01458 6.12823 3.23826 4.91421C3.31764 4.4824 3.54344 4.09114 3.87761 3.80638C4.21178 3.52162 4.6339 3.36074 5.07284 3.35087ZM2.63888 11.5C2.63888 13.705 2.83867 15.9086 3.23971 18.0859C3.40305 18.9755 4.16867 19.6288 5.07284 19.6492L15.4999 19.8855L25.927 19.6492C26.3657 19.639 26.7875 19.478 27.1213 19.1933C27.4552 18.9085 27.6808 18.5174 27.7601 18.0859C28.1612 15.9086 28.361 13.705 28.361 11.5H2.63888Z" fill="black" fill-opacity="0.8"/>
</svg>
