<svg width="18" height="18" viewBox="0 0 18 18" fill="none" xmlns="http://www.w3.org/2000/svg">
<path d="M16.3667 5.57325C16.2978 5.47356 16.2056 5.39207 16.0983 5.33577C15.9909 5.27947 15.8715 5.25004 15.7502 5.25H5.49999L4.63449 3.1725C4.52101 2.89892 4.32885 2.66519 4.08236 2.50096C3.83588 2.33673 3.54618 2.24938 3.24999 2.25H1.50024V3.75H3.24999L6.80799 12.2888C6.86498 12.4254 6.96113 12.5421 7.08431 12.6241C7.2075 12.7062 7.35222 12.75 7.50024 12.75H13.5002C13.813 12.75 14.0927 12.5558 14.203 12.264L16.453 6.264C16.4955 6.15047 16.5099 6.02832 16.4949 5.90802C16.4798 5.78771 16.4359 5.67285 16.3667 5.57325ZM12.9805 11.25H8.00049L6.12549 6.75H14.668L12.9805 11.25Z" fill="black" fill-opacity="0.7"/>
<path d="M7.87524 15.75C8.49656 15.75 9.00024 15.2463 9.00024 14.625C9.00024 14.0037 8.49656 13.5 7.87524 13.5C7.25392 13.5 6.75024 14.0037 6.75024 14.625C6.75024 15.2463 7.25392 15.75 7.87524 15.75Z" fill="black" fill-opacity="0.7"/>
<path d="M13.1252 15.75C13.7466 15.75 14.2502 15.2463 14.2502 14.625C14.2502 14.0037 13.7466 13.5 13.1252 13.5C12.5039 13.5 12.0002 14.0037 12.0002 14.625C12.0002 15.2463 12.5039 15.75 13.1252 15.75Z" fill="black" fill-opacity="0.7"/>
</svg>
