<svg width="18" height="14" viewBox="0 0 18 14" fill="none" xmlns="http://www.w3.org/2000/svg">
<path d="M2.33335 13.6667C1.87502 13.6667 1.4828 13.5037 1.15669 13.1775C0.830576 12.8514 0.667243 12.4589 0.666687 12V2.00004C0.666687 1.54171 0.83002 1.14948 1.15669 0.823374C1.48335 0.497263 1.87558 0.33393 2.33335 0.333374H15.6667C16.125 0.333374 16.5175 0.496707 16.8442 0.823374C17.1709 1.15004 17.3339 1.54226 17.3334 2.00004V12C17.3334 12.4584 17.1703 12.8509 16.8442 13.1775C16.5181 13.5042 16.1256 13.6673 15.6667 13.6667H2.33335ZM9.00002 7.83337L2.33335 3.66671V12H15.6667V3.66671L9.00002 7.83337ZM9.00002 6.16671L15.6667 2.00004H2.33335L9.00002 6.16671ZM2.33335 3.66671V2.00004V12V3.66671Z" fill="#5A2C17"/>
</svg>
