<svg width="18" height="18" viewBox="0 0 18 18" fill="none" xmlns="http://www.w3.org/2000/svg">
<path d="M5.50002 0.666626H12.5C15.1667 0.666626 17.3334 2.83329 17.3334 5.49996V12.5C17.3334 13.7818 16.8241 15.0112 15.9177 15.9176C15.0113 16.8241 13.7819 17.3333 12.5 17.3333H5.50002C2.83335 17.3333 0.666687 15.1666 0.666687 12.5V5.49996C0.666687 4.21808 1.17591 2.9887 2.08234 2.08228C2.98876 1.17585 4.21814 0.666626 5.50002 0.666626ZM5.33335 2.33329C4.5377 2.33329 3.77464 2.64936 3.21203 3.21197C2.64942 3.77458 2.33335 4.53764 2.33335 5.33329V12.6666C2.33335 14.325 3.67502 15.6666 5.33335 15.6666H12.6667C13.4623 15.6666 14.2254 15.3506 14.788 14.7879C15.3506 14.2253 15.6667 13.4623 15.6667 12.6666V5.33329C15.6667 3.67496 14.325 2.33329 12.6667 2.33329H5.33335ZM13.375 3.58329C13.6513 3.58329 13.9162 3.69304 14.1116 3.88839C14.3069 4.08374 14.4167 4.34869 14.4167 4.62496C14.4167 4.90123 14.3069 5.16618 14.1116 5.36153C13.9162 5.55688 13.6513 5.66663 13.375 5.66663C13.0988 5.66663 12.8338 5.55688 12.6384 5.36153C12.4431 5.16618 12.3334 4.90123 12.3334 4.62496C12.3334 4.34869 12.4431 4.08374 12.6384 3.88839C12.8338 3.69304 13.0988 3.58329 13.375 3.58329ZM9.00002 4.83329C10.1051 4.83329 11.1649 5.27228 11.9463 6.05368C12.7277 6.83508 13.1667 7.89489 13.1667 8.99996C13.1667 10.105 12.7277 11.1648 11.9463 11.9462C11.1649 12.7276 10.1051 13.1666 9.00002 13.1666C7.89495 13.1666 6.83514 12.7276 6.05374 11.9462C5.27234 11.1648 4.83335 10.105 4.83335 8.99996C4.83335 7.89489 5.27234 6.83508 6.05374 6.05368C6.83514 5.27228 7.89495 4.83329 9.00002 4.83329ZM9.00002 6.49996C8.33698 6.49996 7.70109 6.76335 7.23225 7.23219C6.76341 7.70103 6.50002 8.33692 6.50002 8.99996C6.50002 9.663 6.76341 10.2989 7.23225 10.7677C7.70109 11.2366 8.33698 11.5 9.00002 11.5C9.66306 11.5 10.2989 11.2366 10.7678 10.7677C11.2366 10.2989 11.5 9.663 11.5 8.99996C11.5 8.33692 11.2366 7.70103 10.7678 7.23219C10.2989 6.76335 9.66306 6.49996 9.00002 6.49996Z" fill="#5A2C17"/>
</svg>
