<svg width="35" height="30" viewBox="0 0 35 30" fill="none" xmlns="http://www.w3.org/2000/svg">
<g clip-path="url(#clip0_678_54)">
<path d="M6.36286 29.8509V27.8653C6.36286 27.104 5.94259 26.6078 5.22222 26.6078C4.8621 26.6078 4.4719 26.7401 4.20175 27.1704C3.99175 26.8063 3.69165 26.6078 3.24144 26.6078C2.9412 26.6078 2.64124 26.707 2.40103 27.071V26.6739H1.77075V29.8509H2.40103V28.0969C2.40103 27.5344 2.67118 27.2696 3.09146 27.2696C3.51146 27.2696 3.72173 27.5675 3.72173 28.0969V29.8509H4.352V28.0969C4.352 27.5344 4.65196 27.2696 5.04216 27.2696C5.46243 27.2696 5.67243 27.5675 5.67243 28.0969V29.8509H6.36286ZM15.6968 26.6739H14.6765V25.7142H14.0462V26.6739H13.4759V27.3026H14.046V28.7589C14.046 29.487 14.3162 29.9171 15.0366 29.9171C15.3067 29.9171 15.6067 29.8179 15.817 29.6856L15.6368 29.0898C15.4567 29.2221 15.2467 29.2553 15.0966 29.2553C14.7965 29.2553 14.6765 29.0568 14.6765 28.7257V27.3026H15.6968V26.6739ZM21.0392 26.6076C20.6791 26.6076 20.439 26.8063 20.2889 27.071V26.6739H19.6586V29.8509H20.2889V28.0639C20.2889 27.5344 20.4989 27.2366 20.8891 27.2366C21.0091 27.2366 21.1593 27.2697 21.2793 27.3027L21.4593 26.6409C21.3393 26.6078 21.1592 26.6078 21.0392 26.6078M12.9657 26.9388C12.6655 26.7071 12.2453 26.6079 11.7951 26.6079C11.0749 26.6079 10.5947 27.005 10.5947 27.6338C10.5947 28.1634 10.9548 28.4611 11.5851 28.5605L11.8852 28.5936C12.2154 28.6597 12.3954 28.759 12.3954 28.9245C12.3954 29.1561 12.1554 29.3216 11.7351 29.3216C11.3148 29.3216 10.9848 29.1561 10.7746 28.9907L10.4745 29.5202C10.8047 29.7849 11.2549 29.9173 11.705 29.9173C12.5454 29.9173 13.0257 29.4872 13.0257 28.8914C13.0257 28.3288 12.6355 28.0309 12.0352 27.9317L11.7351 27.8985C11.4649 27.8653 11.2549 27.7993 11.2549 27.6008C11.2549 27.3691 11.4649 27.2367 11.7951 27.2367C12.1554 27.2367 12.5155 27.4021 12.6955 27.5014L12.9657 26.9388ZM29.7131 26.6079C29.3528 26.6079 29.1127 26.8065 28.9626 27.0712V26.6741H28.3323V29.8511H28.9626V28.064C28.9626 27.5346 29.1727 27.2367 29.5628 27.2367C29.683 27.2367 29.8331 27.2699 29.9531 27.3029L30.1332 26.6411C30.0132 26.6079 29.8331 26.6079 29.7131 26.6079ZM21.6695 28.2626C21.6695 29.2223 22.2697 29.9173 23.2002 29.9173C23.6203 29.9173 23.9204 29.8181 24.2205 29.5533L23.9204 28.9907C23.6803 29.1893 23.4403 29.2885 23.1701 29.2885C22.6599 29.2885 22.2998 28.8914 22.2998 28.2626C22.2998 27.667 22.6599 27.2697 23.1701 27.2367C23.4403 27.2367 23.6803 27.3359 23.9204 27.5346L24.2205 26.972C23.9204 26.7071 23.6203 26.6079 23.2002 26.6079C22.2697 26.6079 21.6695 27.3029 21.6695 28.2626ZM27.4921 28.2626V26.6741H26.8618V27.0712C26.6517 26.7734 26.3516 26.6079 25.9614 26.6079C25.151 26.6079 24.5208 27.3029 24.5208 28.2626C24.5208 29.2223 25.151 29.9173 25.9614 29.9173C26.3815 29.9173 26.6817 29.7519 26.8618 29.454V29.8511H27.4921V28.2626ZM25.181 28.2626C25.181 27.7 25.5111 27.2367 26.0513 27.2367C26.5616 27.2367 26.9218 27.667 26.9218 28.2626C26.9218 28.8252 26.5616 29.2885 26.0513 29.2885C25.5111 29.2553 25.181 28.8252 25.181 28.2626ZM17.6478 26.6079C16.8074 26.6079 16.207 27.2697 16.207 28.2626C16.207 29.2555 16.8072 29.9173 17.6777 29.9173C18.0978 29.9173 18.5181 29.7849 18.8483 29.4872L18.5481 28.9907C18.308 29.1893 18.0079 29.3216 17.7078 29.3216C17.3176 29.3216 16.9274 29.1231 16.8373 28.5603H18.9683V28.2958C18.9984 27.2697 18.4582 26.6079 17.6478 26.6079ZM17.6476 27.2035C18.0377 27.2035 18.308 27.4684 18.3679 27.9648H16.8672C16.9273 27.5346 17.1974 27.2035 17.6476 27.2035ZM33.2844 28.2626V25.4165H32.6542V27.0712C32.444 26.7734 32.1439 26.6079 31.7537 26.6079C30.9434 26.6079 30.3131 27.3029 30.3131 28.2626C30.3131 29.2223 30.9434 29.9173 31.7537 29.9173C32.174 29.9173 32.4741 29.7519 32.6542 29.454V29.8511H33.2844V28.2626ZM30.9735 28.2626C30.9735 27.7 31.3035 27.2367 31.8438 27.2367C32.3541 27.2367 32.7142 27.667 32.7142 28.2626C32.7142 28.8252 32.3541 29.2885 31.8438 29.2885C31.3035 29.2553 30.9735 28.8252 30.9735 28.2626ZM9.90415 28.2626V26.6741H9.27388V27.0712C9.06374 26.7734 8.76364 26.6079 8.37345 26.6079C7.56312 26.6079 6.93284 27.3029 6.93284 28.2626C6.93284 29.2223 7.56312 29.9173 8.37345 29.9173C8.79372 29.9173 9.09382 29.7519 9.27388 29.454V29.8511H9.90415V28.2626ZM7.56312 28.2626C7.56312 27.7 7.89329 27.2367 8.43347 27.2367C8.9437 27.2367 9.30396 27.667 9.30396 28.2626C9.30396 28.8252 8.9437 29.2885 8.43347 29.2885C7.89329 29.2553 7.56312 28.8252 7.56312 28.2626Z" fill="black"/>
<path d="M12.7556 2.54822H22.2097V21.2795H12.7556V2.54822Z" fill="#FF5F00"/>
<path d="M13.3559 11.9139C13.3559 8.10814 14.9766 4.73246 17.4676 2.54819C15.6369 0.959698 13.326 0 10.8049 0C4.83205 0 0 5.32809 0 11.9139C0 18.4997 4.83205 23.8278 10.8047 23.8278C13.3258 23.8278 15.6368 22.8681 17.4676 21.2795C14.9766 19.1284 13.3559 15.7197 13.3559 11.9139Z" fill="#EB001B"/>
<path d="M34.9652 11.9139C34.9652 18.4996 30.1331 23.8278 24.1604 23.8278C21.6393 23.8278 19.3284 22.8681 17.4976 21.2795C20.0187 19.0954 21.6094 15.7197 21.6094 11.9139C21.6094 8.10814 19.9886 4.73246 17.4976 2.54819C19.3282 0.959698 21.6393 0 24.1604 0C30.1331 0 34.9652 5.36126 34.9652 11.9139Z" fill="#F79E1B"/>
</g>
<defs>
<clipPath id="clip0_678_54">
<rect width="35" height="30" fill="white"/>
</clipPath>
</defs>
</svg>
