<svg width="18" height="18" viewBox="0 0 18 18" fill="none" xmlns="http://www.w3.org/2000/svg">
<path d="M1.00024 15C1.00024 13.9391 1.42167 12.9217 2.17182 12.1716C2.92196 11.4214 3.93938 11 5.00024 11H13.0002C14.0611 11 15.0785 11.4214 15.8287 12.1716C16.5788 12.9217 17.0002 13.9391 17.0002 15C17.0002 15.5304 16.7895 16.0391 16.4145 16.4142C16.0394 16.7893 15.5307 17 15.0002 17H3.00024C2.46981 17 1.9611 16.7893 1.58603 16.4142C1.21096 16.0391 1.00024 15.5304 1.00024 15Z" stroke="black" stroke-opacity="0.7" stroke-width="2" stroke-linejoin="round"/>
<path d="M9.00024 7C10.6571 7 12.0002 5.65685 12.0002 4C12.0002 2.34315 10.6571 1 9.00024 1C7.34339 1 6.00024 2.34315 6.00024 4C6.00024 5.65685 7.34339 7 9.00024 7Z" stroke="black" stroke-opacity="0.7" stroke-width="2"/>
</svg>
