<svg width="20" height="20" viewBox="0 0 20 20" fill="none" xmlns="http://www.w3.org/2000/svg">
<path d="M8.50022 3C9.52411 2.99994 10.5277 3.28568 11.398 3.82507C12.2683 4.36447 12.9707 5.13608 13.4263 6.05306C13.8818 6.97004 14.0723 7.99597 13.9764 9.01536C13.8804 10.0347 13.5018 11.0071 12.8832 11.823L17.0302 15.97C17.1632 16.104 17.2407 16.2832 17.2474 16.4719C17.254 16.6605 17.1893 16.8447 17.0661 16.9878C16.9429 17.1308 16.7703 17.2221 16.5827 17.2434C16.3951 17.2648 16.2064 17.2147 16.0542 17.103L15.9702 17.03L11.8232 12.883C11.1278 13.4102 10.3169 13.7643 9.45755 13.9161C8.59819 14.0679 7.71505 14.0131 6.88109 13.7561C6.04712 13.4992 5.28627 13.0474 4.6614 12.4383C4.03653 11.8291 3.56559 11.08 3.28747 10.2529C3.00935 9.4257 2.93205 8.54424 3.06195 7.6813C3.19185 6.81837 3.52522 5.99872 4.03452 5.2901C4.54382 4.58148 5.21443 4.00421 5.99093 3.606C6.76744 3.20779 7.62756 3.00007 8.50022 3ZM8.50022 4.5C7.43935 4.5 6.42194 4.92143 5.67179 5.67157C4.92165 6.42172 4.50022 7.43913 4.50022 8.5C4.50022 9.56087 4.92165 10.5783 5.67179 11.3284C6.42194 12.0786 7.43935 12.5 8.50022 12.5C9.56108 12.5 10.5785 12.0786 11.3286 11.3284C12.0788 10.5783 12.5002 9.56087 12.5002 8.5C12.5002 7.43913 12.0788 6.42172 11.3286 5.67157C10.5785 4.92143 9.56108 4.5 8.50022 4.5Z" fill="black" fill-opacity="0.6"/>
</svg>
