<svg width="20" height="20" viewBox="0 0 20 20" fill="none" xmlns="http://www.w3.org/2000/svg">
<g clip-path="url(#clip0_754_59)">
<path fill-rule="evenodd" clip-rule="evenodd" d="M14.8475 5.82417C14.5533 5.40083 13.7666 4.80583 12.4925 5.0625C11.7491 5.21167 11.305 5.57917 11.0225 6.06417C10.7216 6.58083 10.5758 7.28333 10.5758 8.10083C10.5758 8.32185 10.488 8.53381 10.3317 8.69009C10.1755 8.84637 9.96349 8.93417 9.74248 8.93417C7.77081 8.93417 5.89414 8.34833 4.31498 6.76417C4.19561 7.4069 4.14865 8.06098 4.17498 8.71417C4.21914 9.61917 4.43498 10.5267 4.94748 11.3042C5.45164 12.0683 6.28081 12.7683 7.66748 13.2083C7.80335 13.2514 7.9259 13.3287 8.0234 13.4327C8.12091 13.5366 8.19011 13.6639 8.22438 13.8023C8.25866 13.9406 8.25687 14.0855 8.21919 14.223C8.1815 14.3604 8.10918 14.486 8.00914 14.5875C7.5651 15.0432 7.06169 15.437 6.51248 15.7583C7.39581 15.85 8.24748 15.8567 9.03748 15.785C10.6375 15.64 11.9116 15.1825 12.7083 14.535C14.3858 13.175 15.2833 11.1467 15.1166 7.74833C15.0883 7.19 15.6275 6.5875 15.8875 6.13C15.495 6.20334 15.1016 6.19 14.8475 5.82417ZM3.82831 4.15334C3.97919 4.1358 4.13199 4.15984 4.27019 4.22285C4.4084 4.28585 4.52676 4.38544 4.61248 4.51084C5.84248 6.31 7.31914 7.05833 8.95831 7.22833C9.03831 6.5275 9.22748 5.835 9.58331 5.225C10.105 4.33 10.9533 3.67167 12.165 3.42833C13.84 3.09167 15.115 3.69833 15.8541 4.44083L17.3475 4.16167C17.5037 4.13239 17.6651 4.14842 17.8126 4.20787C17.96 4.26733 18.0874 4.36772 18.1796 4.49721C18.2719 4.62669 18.3252 4.77987 18.3332 4.93865C18.3412 5.09743 18.3037 5.2552 18.225 5.39334L16.7916 7.91167C16.9225 11.5458 15.9125 14.0825 13.7591 15.83C12.6175 16.7567 10.9825 17.2825 9.18831 17.445C7.37998 17.6083 5.33581 17.4108 3.30414 16.8175C3.13055 16.7669 2.97814 16.6611 2.86991 16.5163C2.76168 16.3714 2.70351 16.1953 2.70417 16.0145C2.70483 15.8336 2.76428 15.6579 2.87356 15.5139C2.98285 15.3698 3.13602 15.2652 3.30998 15.2158C4.33164 14.925 5.10998 14.6742 5.81248 14.235C4.81331 13.705 4.07748 13.0117 3.55664 12.2217C2.83331 11.1233 2.56498 9.89833 2.51164 8.79417C2.45831 7.69 2.61748 6.66667 2.78581 5.92917C2.88164 5.50833 2.99331 5.08667 3.14748 4.68333C3.20186 4.54116 3.29414 4.4166 3.41431 4.32316C3.53448 4.22973 3.67712 4.17099 3.82831 4.15334Z" fill="#5A2C17"/>
</g>
<defs>
<clipPath id="clip0_754_59">
<rect width="20" height="20" fill="white"/>
</clipPath>
</defs>
</svg>
